<?xml version="1.0" encoding="utf-8"?>
<!-- Generator: Adobe Illustrator 28.2.0, SVG Export Plug-In . SVG Version: 6.00 Build 0)  -->
<svg version="1.1" id="Layer_1" xmlns="http://www.w3.org/2000/svg" xmlns:xlink="http://www.w3.org/1999/xlink" x="0px" y="0px"
	 viewBox="0 0 2592 1296" style="enable-background:new 0 0 2592 1296;" xml:space="preserve">
<style type="text/css">
	.st0{fill:#FCB019;}
	.st1{fill:#FFFFFF;}
</style>
<g>
	<path class="st0" d="M2519.96,1224H72.04V72h2447.93V1224z M95.51,1200.52h2400.97V95.48H95.51V1200.52z"/>
	<g>
		<g>
			<g>
				<path class="st1" d="M250.13,542.47H563.4L379.56,864.75h173.29v86.87H221.93L406.6,629.34H250.13V542.47z"/>
			</g>
			<g>
				<path class="st1" d="M1206.71,599.63l-63.54,63.55c-25.83-25.57-49.27-38.35-70.34-38.35c-11.53,0-20.56,2.45-27.08,7.33
					c-6.5,4.89-9.76,10.97-9.76,18.24c0,5.52,2.06,10.59,6.21,15.23c4.13,4.65,14.34,10.97,30.63,18.99l37.6,18.8
					c39.61,19.56,66.81,39.49,81.62,59.79c14.79,20.31,22.19,44.13,22.19,71.45c0,36.35-13.36,66.69-40.06,91
					c-26.7,24.32-62.49,36.49-107.36,36.49c-59.68,0-107.31-23.33-142.91-69.96l63.19-68.82c12.02,14.04,26.14,25.38,42.3,34.04
					c16.18,8.65,30.52,12.97,43.06,12.97c13.54,0,24.44-3.25,32.73-9.78c8.27-6.51,12.4-14.04,12.4-22.57
					c0-15.8-14.93-31.21-44.75-46.25l-34.59-17.3c-66.18-33.34-99.29-75.08-99.29-125.22c0-32.34,12.47-59.98,37.42-82.93
					c24.93-22.94,56.84-34.41,95.72-34.41c26.57,0,51.57,5.83,75.01,17.49C1170.53,561.08,1190.42,577.82,1206.71,599.63z"/>
			</g>
		</g>
		<g>
			<path class="st0" d="M270.4,380.29c4.87-23.37,13.61-30.67,36.31-30.91c19.82-0.21,39.65-0.26,59.47-0.02
				c22.5,0.27,30.61,6.56,37.07,28.73c12.78,0,25.89,0,38.99,0c13.13,0,26.27,0,41.19,0c0-6.25,0.25-11.16-0.04-16.05
				c-2.7-46.31,34.14-83.1,81.34-83.66c100.27-1.2,200.57-1.14,300.85-0.03c47.17,0.52,84.27,37.61,81.42,83.6
				c-0.3,4.9-0.04,9.84-0.04,16.28c24.51,0,47.34-0.17,70.18,0.03c55.97,0.49,111.93,1.02,167.9,1.8
				c43.97,0.61,72.08,28.8,71.64,72.69c-0.66,65.26-2.06,364.99-3.14,430.25c-1.19,0-2.38,0-3.57,0.01c0-47.53,0-329.53,0-376.44
				c-111.51,0-220.09,0-328.67,0c-0.65,0.89-1.3,1.77-1.95,2.66c51.44,54.59,75.1,119.26,72.14,193.65
				c-4.84-72.87-30.24-136.59-84.42-186.82c-53.94-50.01-118.23-74.19-191.63-69.07c-144.25,10.06-243.75,131.4-241.94,261.64
				c-6.39-76.83,18.82-142.56,73.07-201.51c-122.79,0-242.84,0-365.91,0c0,46.16,0,328.27,0,375.91c-1.29,0-2.58,0-3.87,0
				c-1.03-67.55-2.09-369.57-2.98-437.12c-0.06-4.57,0.88-9.27,2.05-13.73c8.22-31.51,32.34-50.83,64.77-51.83
				C250.63,380.03,260.68,380.29,270.4,380.29z M1246.97,494.96c0-15.28,0.13-28.87-0.03-42.45c-0.42-35.2-25.3-59.79-60.72-59.54
				c-76.96,0.55-153.91,1.43-230.87,2.03c-27.45,0.21-27.26,3.36-25.71-25.36c2.6-48.08-33.83-72.85-72.2-72.63
				c-95.62,0.54-191.24,0.11-286.86,0.23c-42.19,0.06-69.31,27.12-69.59,68.94c-0.03,3.89-0.03,7.77-0.04,11.66
				c-0.06,17.18-0.08,17.3-16.72,17.15c-80.06-0.72-160.13-1.54-240.19-2.23c-29.96-0.26-53.25,16.8-58.66,46.1
				c-3.32,17.96-2.15,36.74-2.99,55c3.12,0.61,4.23,1.02,5.33,1.01c123.21-0.82,246.42-1.63,369.63-2.71
				c3.85-0.03,8.27-2.03,11.42-4.43c100.19-76.02,225.07-76.17,325.99-0.48c3.93,2.95,9.69,4.84,14.62,4.9
				c107.27,1.13,214.55,1.93,321.82,2.79C1236.18,494.99,1241.15,494.96,1246.97,494.96z M388.5,378.5
				c-1.07-11.54-8.19-15.38-15.93-15.62c-23.68-0.75-47.42-0.92-71.09-0.03c-8.17,0.31-17.01,3.66-15.14,15.65
				C320.21,378.5,353.53,378.5,388.5,378.5z"/>
			<path class="st0" d="M559.36,696.66c0.03,0.9,0.07,1.81,0.13,2.7c-0.06,0.89-0.1,1.8-0.13,2.7c-0.05-0.9-0.09-1.81-0.12-2.7
				C559.27,698.47,559.31,697.56,559.36,696.66z"/>
			<path class="st0" d="M905.32,699.36c-0.06,1.63-0.14,3.26-0.24,4.91c-0.12-1.65-0.26-3.28-0.43-4.91
				c0.16-1.63,0.3-3.26,0.43-4.91C905.18,696.1,905.26,697.73,905.32,699.36z"/>
			<path class="st0" d="M1120,473.2c-18.22,0-36.44,0.11-54.66-0.04c-15.29-0.13-19.5-4.29-20-19.07
				c-1.15-34.05-0.14-35.09,34.19-35.1c32.17,0,64.35-0.05,96.52,0.01c17.06,0.03,21.2,4.28,21.24,21.37
				c0.07,32.65-0.12,32.83-33.1,32.84C1149.46,473.21,1134.73,473.21,1120,473.2z M1119.95,462.09c18.65,0,37.31-0.23,55.96,0.11
				c7.35,0.14,11.07-2.08,10.32-9.92c-0.33-3.47-0.4-7.03,0.02-10.48c1.13-9.22-2.59-12.18-11.88-12.04
				c-32.25,0.49-64.51,0.04-96.76,0.24c-23.13,0.14-21.17-4.2-21.48,22.06c-0.09,7.5,2.54,10.34,10.2,10.17
				C1084.19,461.82,1102.07,462.1,1119.95,462.09z"/>
			<path class="st0" d="M541.29,476.48c-5.83,0.01-11.66-0.05-17.49,0.02c-7.45,0.1-10.48-4.27-10.72-10.95
				c-0.25-6.83,2.98-11.41,10.15-11.58c12.43-0.28,24.98-1,37.24,0.49c3.65,0.44,8.63,7.44,8.98,11.76
				c0.26,3.14-5.56,8.61-9.63,9.83C554.11,477.75,547.51,476.48,541.29,476.48z"/>
		</g>
		<g>
			<path class="st0" d="M559.5,699.36c-0.06,0.89-0.1,1.8-0.13,2.7c-0.05-0.9-0.09-1.81-0.12-2.7c0.03-0.89,0.07-1.8,0.12-2.7
				C559.39,697.56,559.43,698.47,559.5,699.36z"/>
			<path class="st0" d="M905.32,699.36c-0.06,1.63-0.14,3.26-0.24,4.91c-0.12-1.65-0.26-3.28-0.43-4.91
				c0.16-1.63,0.3-3.26,0.43-4.91C905.18,696.1,905.26,697.73,905.32,699.36z"/>
			<path class="st0" d="M827.09,562.62c-30.91-21.68-65.76-31.46-103.4-29.39c-92.21,5.08-159.7,79.66-164.2,166.13
				c4.5,86.47,71.99,161.07,164.2,166.13c37.63,2.07,72.49-7.71,103.4-29.38c47.6-33.4,72.06-79.89,77.56-136.75
				C899.16,642.51,874.7,596.02,827.09,562.62z M864.5,676.98c-27.84-66.26-75.09-103.03-146.42-111.28
				C778.63,555.09,857.05,614.12,864.5,676.98z M718.08,833.02c71.33-8.25,118.58-45.01,146.42-111.29
				C857.05,784.59,778.63,843.64,718.08,833.02z"/>
		</g>
		<g>
			<g>
				<path class="st1" d="M1402.6,878.45h-88.18v-38.79h86.59c33.94,0,32.97-50.84,0-50.84c-9.77,0-27.57,0.01-37.3,0.06
					c-30.18,0-51.34-22.36-54.38-46.88c-4.24-33.45,21.96-61.06,53.57-61.06h88.34v38.84c-0.93,0-88.48,0.01-89.41,0.07l0,0.03
					c-18.16,1.24-18.7,28.77,0,30.05l0,0.03c1.54,0.11,33.01,0.06,39.18,0.06c17.62,0,32.87,6.36,45.34,18.9
					C1486.69,809.51,1457.66,877.84,1402.6,878.45z"/>
				<path class="st1" d="M1565.39,878.19V719.76h-62.03v-38.82h162.88v38.82h-61.84v158.42H1565.39z"/>
				<path class="st1" d="M1871.92,680.5c0,24.99-0.02,102.55-0.19,126.97l-0.01,0.32c-1.11,21.16-9.48,39.38-24.89,54.17
					c-31.05,29.81-79.14,29.68-110,0.93c-17.02-15.87-26.02-36.29-26.02-59.08V680.51h39.01v105.81
					c-0.22,18.62-2.36,34.11,14.35,48.82c15.83,13.93,39.77,13.63,55.48-1.01c7.98-7.44,12.26-16.26,13.07-26.96V680.5H1871.92z"/>
				<path class="st1" d="M2089.68,812.36c-2.02,10.84-5.95,21.27-12.24,30.37c-14.59,22.32-39.62,35.75-66.85,35.75
					c-30.1,0-49.72,0-80.73,0c0-23.47,0-178.55,0-197.81h80.73c27.44,0,52.28,14.09,66.88,35.64c8.29,12.24,12.33,25.03,13.25,38.37
					C2090.93,757.7,2091.93,800.21,2089.68,812.36z M2051.76,755.05c-3.01-19.77-19.76-35.38-41.17-35.38h-41.53v119.8h41.53
					c21.29,0,38.14-15.29,41.15-35.27l0.02-0.11C2052.34,800.57,2052.26,758.08,2051.76,755.05z"/>
				<path class="st1" d="M2145.14,878.1l0.21-197.13h39V878.1H2145.14z"/>
				<path class="st1" d="M2415.1,749.34c0.72,9.65,0.16,19.45,0.16,29.08c0,28.82,1.66,46.85-13.52,70.06
					c-13.71,20.97-37.97,35.9-66.95,35.9h-14.32c-28.6,0-53.02-14.63-66.95-35.9c-15.43-22.31-13.51-41.45-13.51-62.84
					c0-11.13,0-22.27,0-33.41c0-38.62,34.39-77.49,80.46-77.49c0,0,14.31,0,14.32,0C2375.02,674.75,2411.82,705.48,2415.1,749.34z
					 M2375.95,749.04c-1.53-10.06-6.09-18.28-13.93-25.14c-8.04-7.03-21.22-10.51-34.38-10.5c-13.16-0.01-26.33,3.46-34.38,10.5
					c-7.84,6.86-12.4,15.08-13.93,25.14c-0.54,3.21-0.71,56.8-0.01,60.96c1.54,10.29,6.09,18.53,13.93,25.31
					c7.81,6.77,16.72,10.07,27.24,10.07h14.32c10.52,0,19.43-3.29,27.24-10.07c7.83-6.78,12.37-15.03,13.93-25.31
					C2376.66,805.84,2376.48,752.25,2375.95,749.04z"/>
			</g>
		</g>
		<g>
			<g>
				<path class="st1" d="M1480.85,464.17l-110.63,94.13h123.05v38.78h-128.86c-15.53,0-29.03-9.42-34.39-23.99
					c-5.36-14.58-1.18-30.49,10.64-40.56l110.63-94.13h-109.27v-38.78h115.07c15.53,0,29.03,9.42,34.39,23.99
					C1496.86,438.18,1492.68,454.1,1480.85,464.17z"/>
				<path class="st1" d="M1544.23,520.63c-0.02-43.52-5.83-75.02,26.14-104.68c30.97-28.73,79.39-28.92,110.48,1.05
					c15.39,14.84,23.82,33.07,25.06,54.21l0.01,0.37c0.17,26.11,0.19,99.74,0.19,125.68h-39.2v-72.19h-83.47v72.19h-39.2
					C1544.25,572.15,1544.25,553.14,1544.23,520.63z M1666.92,485.87c0-11.62,1.7-26.82-13.47-41.07
					c-15.76-14.8-39.68-14.98-55.56-0.99c-16.24,14.31-14.44,30.22-14.44,42.05L1666.92,485.87L1666.92,485.87z"/>
				<path class="st1" d="M1763.68,596.88l0.21-197.13h39v197.13H1763.68z"/>
				<path class="st1" d="M1981.33,517.71h-81.95v79.57h-38.89c0-21.01,0-75.75,0-96.5c0-19.88-4.46-65.79,41.76-91.49
					c12.14-6.75,32.36-9.83,46.02-9.83h54.85v39.01h-54.85c-27.61,0-47.98,14.17-48.93,40.56h82V517.71z"/>
				<path class="st1" d="M2051.88,596.88l0.21-197.13h39v197.13H2051.88z"/>
			</g>
		</g>
	</g>
</g>
</svg>
